<svg
        xmlns="http://www.w3.org/2000/svg"
        xmlns:xlink="http://www.w3.org/1999/xlink"
        width="147px" height="14px">
    <path fill-rule="evenodd"  fill="rgb(255, 255, 255)"
          d="M143.857,2.204 C141.171,2.640 139.750,4.553 139.458,6.580 L139.517,6.580 C140.120,5.803 141.171,5.159 142.573,5.159 C144.811,5.159 146.388,6.731 146.388,9.137 C146.388,11.391 144.811,13.474 142.183,13.474 C139.478,13.474 137.707,11.429 137.707,8.228 C137.707,5.803 138.602,3.890 139.848,2.678 C140.899,1.674 142.300,1.049 143.896,0.860 C144.403,0.784 144.831,0.765 145.142,0.765 L145.142,2.129 C144.792,2.110 144.344,2.129 143.857,2.204 ZM142.183,12.186 C143.663,12.186 144.656,10.993 144.656,9.232 C144.656,7.470 143.624,6.409 142.047,6.409 C141.016,6.409 140.062,7.034 139.595,7.925 C139.478,8.114 139.400,8.360 139.400,8.663 C139.439,10.690 140.393,12.186 142.183,12.186 ZM131.618,5.159 C133.856,5.159 135.433,6.731 135.433,9.137 C135.433,11.391 133.856,13.474 131.228,13.474 C128.523,13.474 126.751,11.429 126.751,8.228 C126.751,5.803 127.647,3.890 128.892,2.678 C129.944,1.674 131.345,1.049 132.941,0.860 C133.447,0.784 133.875,0.765 134.187,0.765 L134.187,2.129 C133.837,2.110 133.389,2.129 132.902,2.204 C130.216,2.640 128.795,4.553 128.503,6.580 L128.561,6.580 C129.165,5.803 130.216,5.159 131.618,5.159 ZM128.445,8.663 C128.484,10.690 129.437,12.186 131.228,12.186 C132.708,12.186 133.700,10.993 133.700,9.232 C133.700,7.470 132.669,6.409 131.092,6.409 C130.060,6.409 129.107,7.034 128.639,7.925 C128.523,8.114 128.445,8.360 128.445,8.663 ZM120.020,13.474 C117.548,13.474 115.874,11.220 115.835,7.148 C115.835,3.019 117.665,0.746 120.234,0.746 C122.901,0.746 124.419,3.057 124.419,6.978 C124.419,11.164 122.823,13.474 120.020,13.474 ZM120.137,2.034 C118.638,2.034 117.548,3.814 117.548,7.167 C117.548,10.368 118.560,12.186 120.117,12.186 C121.869,12.186 122.706,10.198 122.706,7.053 C122.706,4.023 121.908,2.034 120.137,2.034 ZM109.065,13.474 C106.593,13.474 104.919,11.220 104.880,7.148 C104.880,3.019 106.709,0.746 109.279,0.746 C111.945,0.746 113.464,3.057 113.464,6.978 C113.464,11.164 111.868,13.474 109.065,13.474 ZM109.181,2.034 C107.683,2.034 106.593,3.814 106.593,7.167 C106.593,10.368 107.605,12.186 109.162,12.186 C110.914,12.186 111.751,10.198 111.751,7.053 C111.751,4.023 110.953,2.034 109.181,2.034 ZM96.846,9.781 C96.846,11.751 95.269,13.474 92.233,13.474 C90.812,13.474 89.566,13.039 88.943,12.641 L89.410,11.353 C89.897,11.656 91.026,12.130 92.213,12.130 C94.413,12.130 95.094,10.766 95.074,9.743 C95.055,8.019 93.459,7.281 91.804,7.281 L90.851,7.281 L90.851,6.031 L91.804,6.031 C93.050,6.031 94.627,5.406 94.627,3.947 C94.627,2.962 93.984,2.091 92.408,2.091 C91.396,2.091 90.422,2.526 89.877,2.905 L89.430,1.693 C90.091,1.220 91.376,0.746 92.739,0.746 C95.230,0.746 96.359,2.186 96.359,3.682 C96.359,4.951 95.581,6.031 94.023,6.580 L94.023,6.618 C95.581,6.921 96.846,8.057 96.846,9.781 ZM86.436,9.895 C86.436,12.035 84.547,13.474 82.134,13.474 C79.487,13.474 77.890,11.940 77.890,10.141 C77.890,8.588 78.844,7.489 80.401,6.845 L80.382,6.788 C78.980,6.144 78.377,5.084 78.377,4.023 C78.377,2.072 80.070,0.746 82.289,0.746 C84.742,0.746 85.968,2.242 85.968,3.777 C85.968,4.818 85.443,5.936 83.886,6.656 L83.886,6.712 C85.462,7.319 86.436,8.398 86.436,9.895 ZM84.333,3.947 C84.333,2.962 83.730,1.939 82.192,1.939 C80.771,1.939 79.993,2.848 79.993,3.909 C79.993,5.140 80.946,5.803 82.406,6.182 C83.496,5.822 84.333,5.065 84.333,3.947 ZM81.920,7.375 C80.440,7.792 79.642,8.739 79.642,9.914 C79.584,11.164 80.557,12.262 82.173,12.262 C83.710,12.262 84.703,11.334 84.703,10.065 C84.703,8.569 83.633,7.849 81.920,7.375 ZM69.660,13.361 C69.037,13.456 68.492,13.474 68.084,13.456 L68.084,12.092 C68.453,12.130 68.882,12.092 69.466,12.035 C70.458,11.902 71.393,11.505 72.113,10.842 C72.950,10.103 73.553,9.023 73.787,7.565 L73.728,7.565 C73.028,8.398 72.015,8.891 70.750,8.891 C68.473,8.891 67.013,7.224 67.013,5.121 C67.013,2.792 68.745,0.746 71.334,0.746 C73.923,0.746 75.519,2.792 75.519,5.936 C75.519,8.644 74.585,10.539 73.339,11.713 C72.366,12.641 71.023,13.209 69.660,13.361 ZM71.198,2.015 C69.738,2.015 68.706,3.265 68.706,5.008 C68.706,6.542 69.660,7.622 71.140,7.622 C72.288,7.622 73.183,7.072 73.631,6.334 C73.728,6.182 73.787,5.993 73.787,5.728 C73.787,3.625 72.989,2.015 71.198,2.015 ZM51.972,13.266 L57.461,2.375 L57.461,2.337 L51.271,2.337 L51.271,0.954 L59.252,0.954 L59.252,2.053 L53.743,13.266 L51.972,13.266 ZM46.992,13.266 L45.377,13.266 L45.377,9.914 L39.498,9.914 L39.498,8.815 L45.143,0.954 L46.992,0.954 L46.992,8.607 L48.764,8.607 L48.764,9.914 L46.992,9.914 L46.992,13.266 ZM45.377,2.564 C44.987,3.284 44.676,3.814 44.325,4.383 L41.231,8.569 L41.231,8.607 L45.377,8.607 L45.377,4.496 C45.377,3.852 45.396,3.208 45.435,2.564 L45.377,2.564 ZM36.971,9.781 C36.971,11.751 35.395,13.474 32.358,13.474 C30.937,13.474 29.691,13.039 29.068,12.641 L29.536,11.353 C30.022,11.656 31.151,12.130 32.339,12.130 C34.538,12.130 35.219,10.766 35.200,9.743 C35.180,8.019 33.584,7.281 31.930,7.281 L30.976,7.281 L30.976,6.031 L31.930,6.031 C33.176,6.031 34.752,5.406 34.752,3.947 C34.752,2.962 34.110,2.091 32.533,2.091 C31.521,2.091 30.548,2.526 30.003,2.905 L29.555,1.693 C30.217,1.220 31.502,0.746 32.864,0.746 C35.356,0.746 36.485,2.186 36.485,3.682 C36.485,4.951 35.706,6.031 34.149,6.580 L34.149,6.618 C35.706,6.921 36.971,8.057 36.971,9.781 ZM16.791,2.508 L16.752,2.508 L14.553,3.663 L14.222,2.394 L16.986,0.954 L18.446,0.954 L18.446,13.266 L16.791,13.266 L16.791,2.508 ZM6.050,13.266 L4.805,13.266 L4.805,8.777 L0.406,8.777 L0.406,7.641 L4.805,7.641 L4.805,3.189 L6.050,3.189 L6.050,7.641 L10.449,7.641 L10.449,8.777 L6.050,8.777 L6.050,13.266 Z"/>
</svg>